<svg xmlns="http://www.w3.org/2000/svg" viewBox="0 0 74.66 71.98"><defs><style>.cls-1,.cls-3{fill:none;stroke:#000;}.cls-1{stroke-miterlimit:10;}.cls-2{fill:#fff;}.cls-3{stroke-linecap:round;stroke-linejoin:round;}</style></defs><title>calender</title><g id="Layer_2" data-name="Layer 2"><g id="Ebene_1" data-name="Ebene 1"><line class="cls-1" x1="18.76" y1="3.42" x2="42.74" y2="3.42"/><path class="cls-1" d="M49.78,3.42h5.94a4.72,4.72,0,0,1,4.72,4.72V61.86a4.72,4.72,0,0,1-4.72,4.72H5.22A4.72,4.72,0,0,1,.5,61.86V8.14A4.72,4.72,0,0,1,5.22,3.42h6.14"/><line class="cls-1" x1="0.5" y1="18.91" x2="60.45" y2="18.91"/><line class="cls-1" x1="15.24" y1="8.05" x2="15.24"/><circle class="cls-1" cx="15.24" cy="11.57" r="3.52"/><line class="cls-1" x1="46.16" y1="8.05" x2="46.16"/><circle class="cls-1" cx="46.16" cy="11.57" r="3.52"/><rect class="cls-1" x="20.2" y="26.02" width="8.01" height="8.01" rx="1.53" ry="1.53"/><rect class="cls-1" x="32.74" y="26.02" width="8.01" height="8.01" rx="1.53" ry="1.53"/><rect class="cls-1" x="45.28" y="26.02" width="8.01" height="8.01" rx="1.53" ry="1.53"/><rect class="cls-1" x="20.2" y="38.09" width="8.01" height="8.01" rx="1.53" ry="1.53"/><rect class="cls-1" x="7.66" y="38.09" width="8.01" height="8.01" rx="1.53" ry="1.53"/><rect class="cls-1" x="32.74" y="38.09" width="8.01" height="8.01" rx="1.53" ry="1.53"/><rect class="cls-1" x="20.2" y="49.75" width="8.01" height="8.01" rx="1.53" ry="1.53"/><rect class="cls-1" x="7.66" y="49.75" width="8.01" height="8.01" rx="1.53" ry="1.53"/><rect class="cls-1" x="32.74" y="49.75" width="8.01" height="8.01" rx="1.53" ry="1.53"/><rect class="cls-1" x="45.28" y="38.09" width="8.01" height="8.01" rx="1.53" ry="1.53"/><path class="cls-2" d="M59.22,71.48A14.94,14.94,0,1,1,74.16,56.54,15,15,0,0,1,59.22,71.48Z"/><path d="M59.22,42.1A14.44,14.44,0,1,1,44.78,56.54,14.46,14.46,0,0,1,59.22,42.1m0-1A15.44,15.44,0,1,0,74.66,56.54,15.44,15.44,0,0,0,59.22,41.1Z"/><polyline class="cls-3" points="51.12 56.54 56.62 61.59 67.02 52.11"/></g></g></svg>