<svg xmlns="http://www.w3.org/2000/svg" viewBox="0 0 75.33 75.33"><defs><style>.cls-1{fill:none;stroke:#000;stroke-linecap:round;stroke-linejoin:round;}</style></defs><title>clock</title><g id="Layer_2" data-name="Layer 2"><g id="Ebene_1" data-name="Ebene 1"><path d="M37.66,1A36.66,36.66,0,1,1,1,37.66,36.71,36.71,0,0,1,37.66,1m0-1A37.66,37.66,0,1,0,75.33,37.66,37.66,37.66,0,0,0,37.66,0Z"/><path d="M37.66,33.28a4.38,4.38,0,1,1-4.38,4.38,4.39,4.39,0,0,1,4.38-4.38m0-1A5.38,5.38,0,1,0,43,37.66a5.38,5.38,0,0,0-5.38-5.38Z"/><line class="cls-1" x1="20.04" y1="19.67" x2="33.87" y2="33.85"/><line class="cls-1" x1="43.04" y1="33.85" x2="54.18" y2="23.75"/><line class="cls-1" x1="37.66" y1="14.1" x2="37.66" y2="5.2"/><line class="cls-1" x1="37.66" y1="70.13" x2="37.66" y2="61.23"/><line class="cls-1" x1="61.23" y1="37.66" x2="70.13" y2="37.66"/><line class="cls-1" x1="5.19" y1="37.66" x2="14.1" y2="37.66"/><line class="cls-1" x1="49.85" y1="17.5" x2="54.45" y2="9.87"/><line class="cls-1" x1="20.88" y1="65.46" x2="25.48" y2="57.83"/><line class="cls-1" x1="57.83" y1="49.85" x2="65.46" y2="54.45"/><line class="cls-1" x1="9.87" y1="20.88" x2="17.49" y2="25.48"/><line class="cls-1" x1="58" y1="25.76" x2="65.68" y2="21.25"/><line class="cls-1" x1="9.65" y1="54.08" x2="17.33" y2="49.57"/><line class="cls-1" x1="49.57" y1="58" x2="54.08" y2="65.68"/><line class="cls-1" x1="21.25" y1="9.65" x2="25.75" y2="17.33"/></g></g></svg>