<svg xmlns="http://www.w3.org/2000/svg" viewBox="0 0 104.87 95.91"><defs><style>.cls-1{fill:none;stroke:#000;stroke-linecap:round;stroke-linejoin:round;}</style></defs><title>house</title><g id="Layer_2" data-name="Layer 2"><g id="Ebene_1" data-name="Ebene 1"><path d="M64.42,15v79.9H1V15H64.42m1-1H0v81.9H65.42V14Z"/><path d="M56.11,90.11v4.81H11.86V90.11H56.11m1-1H10.86v6.81H57.11V89.11Z"/><path d="M50.31,68.91V75H18.23V68.91H50.31m1-1H17.23V76H51.31V67.91Z"/><path d="M20.35,54v8.49H11.86V54h8.49m1-1H10.86V63.45H21.35V53Z"/><path d="M38,54v8.49H29.46V54H38m1-1H28.46V63.45H39V53Z"/><path d="M55.55,54v8.49H47.07V54h8.49m1-1H46.07V63.45H56.55V53Z"/><path d="M20.35,39v8.49H11.86V39h8.49m1-1H10.86V48.47H21.35V38Z"/><path d="M38,39v8.49H29.46V39H38m1-1H28.46V48.47H39V38Z"/><path d="M55.55,39v8.49H47.07V39h8.49m1-1H46.07V48.47H56.55V38Z"/><path d="M20.35,24v8.49H11.86V24h8.49m1-1H10.86V33.49H21.35V23Z"/><path d="M38,24v8.49H29.46V24H38m1-1H28.46V33.49H39V23Z"/><path d="M55.55,24v8.49H47.07V24h8.49m1-1H46.07V33.49H56.55V23Z"/><path d="M41.51,1V13.55H24.22V1H41.51m1-1H23.22V14.55H42.51V0Z"/><line class="cls-1" x1="32.71" y1="4.68" x2="32.71" y2="11.05"/><line class="cls-1" x1="35.89" y1="7.87" x2="29.53" y2="7.87"/><line class="cls-1" x1="23.22" y1="76.19" x2="23.22" y2="89.11"/><line class="cls-1" x1="33.71" y1="76.19" x2="33.71" y2="89.11"/><line class="cls-1" x1="44.19" y1="76.19" x2="44.19" y2="89.11"/><path d="M103.87,31v64H65.42V31h38.45m1-1H64.42v66h40.45V30Z"/><path d="M97.25,91.43v3.48H71.16V91.43H97.25m1-1H70.16v5.48H98.25V90.43Z"/><path d="M93.73,75.17v3.49H75V75.17H93.73m1-1H74v5.49H94.73V74.17Z"/><path d="M80.61,62.32v6.45H74.16V62.32h6.45m1-1H73.16v8.45h8.45V61.32Z"/><path d="M94.79,62.32v6.45H88.34V62.32h6.45m1-1H87.34v8.45h8.45V61.32Z"/><path d="M80.61,50.26V56.7H74.16V50.26h6.45m1-1H73.16V57.7h8.45V49.26Z"/><path d="M94.79,50.26V56.7H88.34V50.26h6.45m1-1H87.34V57.7h8.45V49.26Z"/><path d="M80.61,38.19v6.45H74.16V38.19h6.45m1-1H73.16v8.45h8.45V37.19Z"/><path d="M94.79,38.19v6.45H88.34V38.19h6.45m1-1H87.34v8.45h8.45V37.19Z"/><path class="cls-1" d="M88.2,25"/><path class="cls-1" d="M93.33,25"/><line class="cls-1" x1="80.56" y1="80.03" x2="80.56" y2="90.43"/><line class="cls-1" x1="89.01" y1="80.03" x2="89.01" y2="90.43"/></g></g></svg>