<svg xmlns="http://www.w3.org/2000/svg" viewBox="0 0 30.58 30.58"><defs><style>.cls-1{fill:none;stroke:#000;stroke-linecap:round;stroke-linejoin:round;}</style></defs><title>open</title><g id="Layer_2" data-name="Layer 2"><g id="Ebene_1" data-name="Ebene 1"><circle class="cls-1" cx="15.29" cy="15.29" r="14.79"/><path d="M15.29,6.63a8.66,8.66,0,1,1-8.66,8.66,8.67,8.67,0,0,1,8.66-8.66m0-1A9.66,9.66,0,1,0,25,15.29a9.66,9.66,0,0,0-9.66-9.66Z"/><path d="M15.29,15.15a.38.38,0,1,1-.38.38.38.38,0,0,1,.38-.38m0-1a1.38,1.38,0,1,0,1.38,1.38,1.38,1.38,0,0,0-1.38-1.38Z"/><line class="cls-1" x1="10.77" y1="10.91" x2="14.32" y2="14.55"/><line class="cls-1" x1="16.2" y1="14.94" x2="19.53" y2="11.96"/><line class="cls-1" x1="15.29" y1="8.5" x2="15.29" y2="6.21"/><line class="cls-1" x1="15.29" y1="24.34" x2="15.29" y2="22.06"/><line class="cls-1" x1="21.8" y1="15.29" x2="24.09" y2="15.29"/><line class="cls-1" x1="6.12" y1="15.29" x2="8.4" y2="15.29"/></g></g></svg>