<svg xmlns="http://www.w3.org/2000/svg" viewBox="0 0 30.58 30.58"><defs><style>.cls-1{fill:none;stroke:#000;stroke-miterlimit:10;}</style></defs><title>phone</title><g id="Layer_2" data-name="Layer 2"><g id="Ebene_1" data-name="Ebene 1"><circle class="cls-1" cx="15.29" cy="15.29" r="14.79"/><path d="M12.32,8.79a.72.72,0,0,1,.72.72,8.21,8.21,0,0,0,.41,2.58.73.73,0,0,1-.18.74l-1.59,1.59a11,11,0,0,0,4.76,4.76L18,17.59a.72.72,0,0,1,.51-.21.7.7,0,0,1,.23,0,8.23,8.23,0,0,0,2.58.41.72.72,0,0,1,.72.72v2.52a.72.72,0,0,1-.72.72A12.28,12.28,0,0,1,9.07,9.51a.72.72,0,0,1,.72-.72h2.53m0-1H9.79A1.72,1.72,0,0,0,8.07,9.51,13.29,13.29,0,0,0,21.34,22.79a1.72,1.72,0,0,0,1.72-1.72V18.55a1.72,1.72,0,0,0-1.72-1.72,7.19,7.19,0,0,1-2.26-.36,1.68,1.68,0,0,0-.54-.09,1.73,1.73,0,0,0-1.22.5l-1.05,1.06a10,10,0,0,1-3.35-3.34L14,13.54a1.73,1.73,0,0,0,.43-1.74A7.25,7.25,0,0,1,14,9.51a1.72,1.72,0,0,0-1.72-1.72Z"/></g></g></svg>