<svg xmlns="http://www.w3.org/2000/svg" viewBox="0 0 138.64 79.21"><defs><style>.cls-1{fill:none;stroke:#000;stroke-linecap:round;stroke-linejoin:round;}</style></defs><title>team</title><g id="Layer_2" data-name="Layer 2"><g id="Ebene_1" data-name="Ebene 1"><path class="cls-1" d="M41.72,78.71V60.11A12.07,12.07,0,0,1,53.79,48H85.72A12.07,12.07,0,0,1,97.79,60.11v18.6"/><line class="cls-1" x1="80.69" y1="48.04" x2="60.83" y2="78.71"/><line class="cls-1" x1="58.06" y1="48.04" x2="69.75" y2="64.93"/><path d="M70.26,15.6A12.45,12.45,0,1,1,57.81,28.05,12.46,12.46,0,0,1,70.26,15.6m0-1A13.45,13.45,0,1,0,83.71,28.05,13.45,13.45,0,0,0,70.26,14.6Z"/><path class="cls-1" d="M.5,56.11V39.82A10.56,10.56,0,0,1,11.06,29.26H39A10.56,10.56,0,0,1,49.57,39.82v8.28"/><line class="cls-1" x1="34.6" y1="29.26" x2="17.22" y2="56.11"/><line class="cls-1" x1="14.8" y1="29.26" x2="25.03" y2="44.05"/><path d="M25.47,1A10.77,10.77,0,1,1,14.7,11.77,10.78,10.78,0,0,1,25.47,1m0-1A11.77,11.77,0,1,0,37.24,11.77,11.77,11.77,0,0,0,25.47,0Z"/><path class="cls-1" d="M89.08,48.11V39.82A10.56,10.56,0,0,1,99.64,29.26h27.94a10.56,10.56,0,0,1,10.56,10.56V56.11"/><line class="cls-1" x1="123.18" y1="29.26" x2="105.8" y2="56.11"/><line class="cls-1" x1="103.38" y1="29.26" x2="113.61" y2="44.05"/><path d="M114.05,1a10.77,10.77,0,1,1-10.77,10.77A10.78,10.78,0,0,1,114.05,1m0-1a11.77,11.77,0,1,0,11.77,11.77A11.77,11.77,0,0,0,114.05,0Z"/></g></g></svg>