<svg xmlns="http://www.w3.org/2000/svg" viewBox="0 0 30.58 30.58"><defs><style>.cls-1,.cls-2{fill:none;stroke:#000;}.cls-1{stroke-miterlimit:10;}.cls-2{stroke-linecap:round;stroke-linejoin:round;fill-rule:evenodd;}</style></defs><title>whatsapp</title><g id="Layer_2" data-name="Layer 2"><g id="Ebene_1" data-name="Ebene 1"><circle class="cls-1" cx="15.29" cy="15.29" r="14.79"/><g id="phzPtS"><path class="cls-2" d="M7.54,23.29,8,21.73c.19-.7.38-1.41.58-2.11a.84.84,0,0,0-.08-.68,8.15,8.15,0,0,1-1-4.91,8.24,8.24,0,0,1,3.26-5.82,8.11,8.11,0,0,1,5-1.74,8.44,8.44,0,0,1,8.33,6.73,8.42,8.42,0,0,1-4.2,9.07,8.42,8.42,0,0,1-8,.08.78.78,0,0,0-.61-.06l-3.6.95Zm6.58-9c.16-.2.32-.4.46-.6a.91.91,0,0,0,.17-.9q-.38-1-.79-1.92a.75.75,0,0,0-.62-.48,2.91,2.91,0,0,0-.8,0,1.46,1.46,0,0,0-.63.3,3,3,0,0,0-.85,3.26,6.68,6.68,0,0,0,1.12,1.94A9.38,9.38,0,0,0,17,19.4a3.7,3.7,0,0,0,1.54.19,2.36,2.36,0,0,0,2.27-2.4.75.75,0,0,0-.47-.74l-.7-.33c-.35-.16-.69-.34-1-.49a.81.81,0,0,0-1.09.28l-.5.63a.18.18,0,0,1-.26.06A5.39,5.39,0,0,1,14.12,14.28Z"/></g></g></g></svg>